<svg xmlns="http://www.w3.org/2000/svg" width="330" height="250" fill="none" xmlns:v="https://vecta.io/nano"><path d="M277.536 103.28H47.56s-33.92 0-34.598 41.414 42.739 40.735 45.453 41.414 7.462 3.395 7.462 11.881-4.07 11.202-7.462 11.881-21.03-3.395-21.709 15.955 21.709 15.954 21.709 15.954l191.308.679s19.673 0 19.673-15.955-19.673-15.954-19.673-15.954-9.498-1.358-9.498-12.221 9.498-12.22 9.498-12.22h27.814s31.885-4.073 31.885-41.414-31.885-41.414-31.885-41.414zM318 224.822a17.64 17.64 0 0 1-17.635 17.636 17.64 17.64 0 0 1-17.636-17.636 17.64 17.64 0 0 1 17.636-17.635A17.64 17.64 0 0 1 318 224.822zM12 42.271C12 22.791 27.791 7 47.271 7H274.15c19.479 0 35.271 15.791 35.271 35.271s-15.792 35.271-35.271 35.271H47.271C27.791 77.542 12 61.751 12 42.271z" fill="#2d3441"/><mask id="A" fill="#fff"><path d="M14 48.538A13.54 13.54 0 0 1 27.538 35h138.306v180H27.538A13.54 13.54 0 0 1 14 201.462V48.538z"/></mask><path d="M14 48.538A13.54 13.54 0 0 1 27.538 35h138.306v180H27.538A13.54 13.54 0 0 1 14 201.462V48.538z" fill="#262533"/><path d="M12.959 48.538c0-8.052 6.527-14.579 14.579-14.579h138.306v2.083H27.538a12.5 12.5 0 0 0-12.497 12.496h-2.083zm152.885 167.503H27.538c-8.052 0-14.579-6.527-14.579-14.579h2.083a12.5 12.5 0 0 0 12.497 12.497h138.306v2.082zm-138.306 0c-8.052 0-14.579-6.527-14.579-14.579V48.538c0-8.052 6.527-14.579 14.579-14.579v2.083a12.5 12.5 0 0 0-12.497 12.496v152.924a12.5 12.5 0 0 0 12.497 12.497v2.082zM165.844 35v180V35z" fill="#7289f5" mask="url(#A)"/><mask id="B" fill="#fff"><path d="M165 35h138.306a13.54 13.54 0 0 1 13.538 13.538v152.924A13.54 13.54 0 0 1 303.306 215H165V35z"/></mask><path d="M165 35h138.306a13.54 13.54 0 0 1 13.538 13.538v152.924A13.54 13.54 0 0 1 303.306 215H165V35z" fill="#181a23"/><path d="M165 33.959h138.306c8.052 0 14.579 6.527 14.579 14.579h-2.083a12.5 12.5 0 0 0-12.496-12.496H165v-2.083zm152.885 167.503a14.58 14.58 0 0 1-14.579 14.579H165v-2.082h138.306a12.5 12.5 0 0 0 12.496-12.497h2.083zM165 215V35v180zM303.306 33.959c8.052 0 14.579 6.527 14.579 14.579v152.924a14.58 14.58 0 0 1-14.579 14.579v-2.082a12.5 12.5 0 0 0 12.496-12.497V48.538a12.5 12.5 0 0 0-12.496-12.496v-2.083z" fill="#7289f5" mask="url(#B)"/><path d="M105.532 170.964L149.9 213.96h14.059v-13.538-27.076l-15.562-15.944c-7.936-7.842-20.684-7.908-28.7-.148l-14.165 13.71z" fill="#3c6fc8"/><path d="M28.059 213.958h60.921H149.9l-44.368-43.165-28.825-28.238c-9.056-8.871-23.522-8.942-32.665-.16l-29 28.866v29.159c0 8.096 4.921 13.538 13.017 13.538z" fill="#375898"/><path d="M123.198 100.895a15.03 15.03 0 0 1-15.027 15.026 15.03 15.03 0 0 1-15.026-15.026 15.03 15.03 0 0 1 15.026-15.026 15.03 15.03 0 0 1 15.027 15.026z" fill="#fec272"/><rect x="179" y="181" width="60" height="18" rx="2.384" fill="#8491a3"/><rect x="242" y="181" width="60" height="18" rx="2.384" fill="#1977f2"/><rect x="178.538" y="51.414" width="15.621" height="14.579" rx="7.29" fill="#ff8fc4"/><g fill="#6988bd"><rect x="200.159" y="54.538" width="58.317" height="8.331" rx="2.083"/><rect x="178.538" y="77.993" width="123.924" height="6.248" rx="2.083"/><rect x="178.538" y="93.242" width="123.924" height="6.248" rx="2.083"/><rect x="178.538" y="108.49" width="123.924" height="6.248" rx="2.083"/><rect x="178.538" y="123.738" width="54.152" height="6.248" rx="2.083"/></g></svg>